<?xml version="1.0" encoding="utf-8" ?>
<svg xmlns="http://www.w3.org/2000/svg" xmlns:xlink="http://www.w3.org/1999/xlink" width="512" height="512">
	<path fill="#FFFEFE" d="M254.562 494.211L42.9301 494.239C33.349 494.233 32.6374 490.693 31.2662 481.125C27.4903 454.779 34.6329 407.176 43.4631 383.25C53.4837 356.099 74.9136 335.92 100.893 323.889C112.495 318.516 124.78 314.612 136.655 309.875L157.033 301.669L183.763 289.064C184.536 287.685 184.909 285.775 185.374 284.248L189.514 269.125C190.788 264.742 190.568 266.745 187.942 263.011C186.327 260.714 184.935 258.268 183.498 255.859L176.012 242.737C173.934 238.666 172.148 234.25 169.761 230.364C167.758 227.103 164.64 224.651 162.365 221.574C153.433 209.492 139.72 179.467 148.189 166.608C150.313 163.382 148.476 161.299 147.686 157.02C146.09 148.377 145.647 140.469 145.668 131.709L145.809 121.898C149.137 69.6486 185.097 28.4846 237.013 17.9376C243.917 16.5351 250.927 15.8463 257.942 15.3241C270.976 14.5762 284.103 15.6297 296.593 19.5487C308.587 23.3121 324.935 32.4397 327.573 46C328.072 48.5656 327.787 48.4326 330.026 49.9935L337.676 55.1626C339.561 56.5002 341.412 57.8885 343.161 59.4018C363.056 76.6158 368.441 113.734 366.217 139.241L363.858 160.369C363.302 163.661 363.041 163.89 364.59 166.813C371.207 179.295 361.212 199.69 355.73 211.027C354.342 213.897 353.093 216.958 351.329 219.619C348.49 223.899 344.422 226.832 341.844 231.44L330.558 252.665C327.924 257.371 325.268 261.945 321.653 265.989C322.453 268.463 327.341 287.969 328.224 288.937C328.789 289.556 330.278 290.034 331.058 290.38L338.212 293.679C343.834 296.422 349.315 299.684 355.093 302.07L385.653 313.705C416.304 324.858 445.289 338.112 461.821 368.462C477.526 397.296 484.129 448.376 480.877 481.329C479.566 494.619 475.313 494.205 464.233 494.205L254.562 494.211ZM258.631 30.7771C249.635 31.5163 240.848 32.6962 232.125 35.1023C191.483 46.3131 164.359 80.811 161.367 122.205C160.771 130.455 160.707 162.097 166.5 162.283C176.069 153.791 159.349 122.005 177.094 106.062C185.452 98.5532 195.411 100.182 205.676 101.934C231.06 106.265 244.014 109.294 268.313 100.338C277.225 96.5585 281.738 92.8435 289.716 88.4232C310.432 76.9447 331.867 83.8135 340.876 105.938C349.108 126.152 337.326 145.849 345.802 164.455C348.822 158.438 349.529 152.252 350.085 145.629L350.825 128.684C350.857 101.501 346.427 77.6259 321.712 63.2694C312.708 58.039 310.017 58.0288 311.335 46.7342C311.513 45.2112 311.562 45.526 310.407 44.4895C296.437 31.9495 276.536 30.5459 258.631 30.7771ZM307.161 98.584C299.322 99.6805 293.736 104.775 287.181 108.685C269.052 119.497 245.908 123.819 224.931 121.004L197.575 116.372C182.236 114.284 183.746 122.322 184.86 135.186C186.089 149.387 183.47 157.456 182.891 170.694L182.807 181.222C182.785 185.566 182.547 191.382 177 192.245C165.009 194.109 168.346 172.216 160.797 178.289C159.708 182.171 166.301 195.94 168.025 199.564C171.958 207.829 172.426 208.797 178.375 215.755C184.259 222.637 187.833 231.33 192.053 239.244C199.109 252.473 206.592 263.275 217.427 273.511C231.082 285.686 243.029 290.297 260.925 289.244C285.971 287.769 304.99 265.877 316.784 245.508L330.062 220.906C333.089 215.683 336.079 213.883 338.882 209.8C342.66 204.296 347.814 190.637 349.65 184.493C351.162 179.432 352.77 177.668 346.831 176.253C345.917 182.416 344.255 193.633 335.67 192.311C329.414 191.348 329.278 185.197 329.308 180.209C329.376 168.784 326.381 157.867 326.743 146.379C327.203 131.772 333.258 111.743 318.614 101.476C315.228 99.1028 311.353 98.183 307.259 98.5654L307.161 98.584ZM310.078 279.905C286.029 309.761 241.697 313.444 212.189 289.629L201.899 280.275C200.291 287.732 196.026 297.122 195.532 304.391C193.661 331.902 208.268 382.372 217.392 409.183C219.961 416.731 222.467 424.568 225.962 431.732L230.9 393.825C231.887 386.632 232.285 385.49 228.906 379.093C220.923 362.738 226.05 346.76 242.75 338.713C265.137 327.925 294.388 349.589 285.301 373.963L281.111 382.608C279.435 386.083 282.084 400.433 282.714 404.83L286.148 431.93C289.144 426.284 290.92 420.023 293.019 414C300.321 393.038 322.322 319.669 315.702 297.698C313.946 291.872 310.801 285.939 310.078 279.905ZM331.823 307.145L331.717 318.934C330.712 336.46 326.624 353.246 322.368 370.206C314.988 399.619 302.801 441.661 287.548 468.387L283.915 474.951C283.417 475.933 283.195 477.538 282.388 478.268L302.344 478.524C304.453 474.678 305.873 472.509 308.479 468.84L323.766 447.092C335.927 428.32 347.575 405.62 351.546 383.279C347.054 382.876 342.233 382.811 339.099 378.994C336.433 375.748 336.612 370.5 340.019 367.847C343.202 365.369 350.271 366.318 354.023 366.7C354.003 357.884 350.024 320.821 343.666 314.73C340.445 311.644 335.568 309.653 331.823 307.145ZM180.119 307.875L172.089 312.064C166.465 315.175 166.287 317.443 164.383 323.344C160.124 336.542 157.601 352.712 157.736 366.72C179.512 362.806 179.52 381.77 163.823 382.996L159.9 383.159C165.698 406.456 175.571 427.285 188.605 447.38L203.362 468.371L208.915 475.857C211.295 479.243 210.609 478.49 215.136 478.491L229.71 478.145C229.097 477.414 226.831 472.184 225.99 470.698L220.981 461.613C203.89 427.966 190.849 379.297 183.51 342.876L180.827 327.287C179.822 321.814 180.256 315.599 180.288 310.036C180.29 309.706 180.4 308.027 180.119 307.875ZM362.925 321.843C380.778 373.968 359.861 422.838 330.127 466.005C327.239 470.199 324.126 474.896 320.649 478.595L417.375 478.478L465.535 478.498L465.543 447.597C465.408 445.337 465.105 443.11 464.795 440.875L461.332 417.125C451.669 366.421 431.921 347.195 383.711 329.683C376.812 327.177 369.509 325.103 362.925 321.843ZM147.604 322.875C131.492 328.804 114.775 334.035 99.6647 342.309C61.537 363.186 52.0074 396.966 47.711 437.5L46.6529 448.03L46.4792 473.985C46.4853 475.406 46.3505 477.117 46.683 478.489L96.875 478.478L191.743 478.405C190.509 477.805 190.309 476.994 189.556 475.955L185.723 471C162.977 440.54 142.713 402.679 142.708 363.785C142.707 351.731 143.56 338.76 147.019 327.119C147.416 325.783 149.136 322.715 147.604 322.875ZM254.498 352.089C247.703 352.986 239.334 358.48 240.594 366.375C241.218 370.288 246.029 375.365 247.269 380.625L247.383 381.097C247.959 383.603 247.712 386.175 247.507 388.71L242.31 426.783C241.048 435.587 239.896 444.533 239.594 453.425L239.425 459.031C239.329 462.06 239.655 463.305 241.139 465.983L245.015 472.739C245.927 474.395 246.579 477.175 247.754 478.479L258.278 478.478C265.345 478.391 263.77 480.152 266.38 474.847L270.84 466.419C272.486 463.323 272.9 462.193 272.794 458.704L267.689 411.84C266.513 403.508 262.486 386.837 265.308 378.945C266.967 374.305 272.162 368.612 271.35 363.589C270.076 355.709 261.796 351.651 254.498 352.089Z"/>
</svg>
