<?xml version="1.0" encoding="utf-8" ?>
<svg xmlns="http://www.w3.org/2000/svg" xmlns:xlink="http://www.w3.org/1999/xlink" width="512" height="512">
	<path fill="#FFFEFE" d="M311.721 259.405C298.94 276.986 295.983 286.596 315.529 297.606C332.827 307.349 354.918 312.121 370.178 322.344C391.44 336.587 397.839 367.03 403.022 390.498C404.582 397.558 407.964 410.027 405.895 417.229L405.774 417.625C402.597 428.601 391.11 432.857 380.875 434.851C354.368 440.016 323.665 442.16 296.5 443.085L221.82 443.066C219.972 443.002 218.205 442.624 216.375 442.491L191.558 441.599C174.692 440.834 157.678 439.434 141 436.781C120.964 433.593 104.355 430.944 106.237 407.5C107.812 387.873 113.176 368.06 120.974 350C136.631 313.739 159.721 316.12 190.215 301.106C211.308 290.721 212.187 281.524 201.451 262.981C199.437 259.502 198.429 258.446 194.828 256.732L188.228 253.629C178.964 249.293 169.395 245.396 160.891 239.653C158.573 242.397 155.904 244.559 153.164 246.852L132.017 263.61C127.453 267.126 128.92 266.083 128.932 272.222L128.954 294.65C128.955 297.911 129.351 301.801 128.75 305.009C127.187 313.347 115.427 311.683 113.818 304.488C113.23 301.856 113.66 298.235 113.659 295.515L113.661 277.617C113.659 273.816 113.821 269.911 113.365 266.137C111.132 264.828 109.045 262.6 106.97 260.979L83.1936 241.371C71.899 248.374 52.8908 254.172 45.3306 262.076C35.8794 271.957 28.7195 304.588 28.9701 319.59C34.8014 325.698 58.5329 326.73 67 327.485L108.503 329.174C113.142 329.176 123.433 327.87 124.802 334.293C125.383 337.015 124.658 344.672 120.875 345.02C116.579 345.415 111.825 345.01 107.485 344.996L59.5316 342.642C50.411 341.84 40.7944 341.142 31.9243 338.893C12.4101 333.945 11.7616 323.874 14.1 307.439L17.6118 287.734C19.847 277.412 22.5783 266.496 28.5556 257.625C40.3172 240.169 57.988 239.067 73.7951 228.53C79.6436 224.632 91.0081 216.418 89.2934 209.227C88.4687 205.768 86.71 201.279 84.549 198.479C82.9945 196.466 81.0852 195.626 79.8191 193.204C78.2552 190.212 77.2409 186.892 76.0875 183.725C70.5498 168.516 69.0327 162.318 73.0614 146.132C75.0905 137.979 77.9715 128.892 83.2732 122.222C90.925 112.596 104.749 106.079 116.831 104.723L117.959 104.601C139.319 103.605 159.408 113.908 167.144 134.844C170.005 142.588 171.811 159.72 170.699 168.478C169.996 174.006 166.026 186.4 163.784 191.048C161.071 196.672 156.751 201.414 154.244 207.088C149.388 218.078 171.376 228.505 178.892 232.307L189.126 237.365C185.541 229.634 183.136 220.076 178.913 213.328C174.978 207.04 173.811 196.873 177.223 190.305C178.924 187.033 184.007 182.864 184.705 179.625C185.411 176.344 184.96 172.418 185.023 169.05C185.199 159.618 187.011 149.196 191.682 140.895C198.631 128.545 213.099 118.672 227.5 118.966C239.181 119.205 248.302 121.964 260.988 120.682C268.035 119.97 274.076 115.757 280.809 113.916C299.574 108.784 318.371 126.538 324.864 142.551C330.634 156.782 327.894 164.773 327.755 179.314C327.733 181.593 327.955 181.298 329.563 182.955C338.376 192.038 339.373 204.635 332.429 215.375C327.918 222.352 328.593 219.444 326.149 227.797C325.182 231.103 323.828 234.08 322.248 237.13C335.879 231.97 350.271 227.359 358.151 214.108C359.901 211.166 359.923 210.819 358.387 208.005L350.738 193.203C347.62 186.144 347.475 182.274 345.718 175.503C342.837 164.401 340.717 162.915 342.582 149.891C346.182 124.735 358.269 111.184 382.682 105.428C394.268 102.697 406.445 105.633 416.377 111.874C424.176 116.775 433.61 124.043 435.732 133.511L435.839 134C437.162 139.781 435.623 153.823 438.413 157.119C444.077 163.811 439.923 170.732 437.252 177.393C435.468 181.841 434.371 186.389 432.198 190.706C430.348 194.382 420.4 208.848 421.694 212C430.929 234.512 462.689 235.04 477.69 251.668C490.326 265.674 494.197 285.558 497.007 303.637C500.023 323.043 500.04 333.862 479.226 338.991C471.715 340.842 463.68 341.553 455.982 342.276L426.377 344.407C420.223 344.683 399.014 347.702 400.768 335.875C401.743 329.299 407.2 329.121 412 329.125L422.205 329.007L463 325.504C469.383 324.662 477.436 324.063 482.676 319.897C483.469 304.636 476.135 269.164 464.625 260.038C455.547 252.841 440.086 249.169 429.147 241.679C426.675 244.383 423.528 246.447 420.632 248.674L404.894 261.797C402.36 264.102 398.96 265.735 399.214 268.842L399.413 300.81C399.412 302.388 399.59 304.342 398.919 305.803L398.761 306.125C395.258 313.646 386.594 312.442 384.515 305.194C383.764 302.576 384.263 298.558 384.261 295.807L384.258 279.646C384.258 275.101 384.337 270.607 383.777 266.086L352.604 240.292C351.779 240.622 350.981 241.373 350.233 241.875C343.316 246.52 334.901 249.697 327.124 252.513L319.347 255.23C316.607 256.196 314.075 256.928 312.022 259.086L311.721 259.405ZM122.374 120.244C113.398 120.413 102.962 124.913 96.746 131.646C90.2867 138.643 85.7227 155.029 86.2529 164.489C86.4367 167.768 88.0149 171.453 89.2462 174.478C94.8493 188.24 104.192 207.957 120.801 209.49C141.214 208.102 146.3 189.389 150.57 173.113C151.701 168.802 148.722 168.075 152.331 163.754C152.894 164.268 153.521 164.97 154.178 165.341C154.899 162.891 154.805 160.239 154.823 157.704C154.966 136.841 145.918 120.037 122.359 120.223L122.374 120.244ZM389.671 120.36C380.424 121.051 371.592 124.588 365.46 131.78C361.659 136.239 360.497 141.779 357.986 146.943C351.146 161.009 352.616 153.848 357.335 168.97C358.379 172.316 358.524 175.931 359.409 179.339C362.98 193.097 374.427 208.336 389.457 209.711C402.811 209.497 410.036 200.925 416.467 190.5C420.166 184.503 424.204 177.545 425.362 170.509L423.027 163.714C422.139 160.793 422.218 157.431 422.201 154.402C422.107 138.652 422.239 132.553 407.131 124.391C401.718 121.466 395.83 120.025 389.671 120.36ZM285.976 129.554C281.509 130.908 277.256 132.846 272.773 134.144C263.216 136.912 251.53 137.203 241.545 136.322C235.778 135.813 228.972 133.852 223.25 134.948L222.812 135.029C216.101 136.313 209.867 141.394 206.154 146.965C200.103 156.044 200.569 166.435 200.629 176.879C200.677 185.37 200.935 188.22 194.222 194.262C189.301 198.691 190.75 203.598 192.027 209.91C192.718 213.322 193.803 214.277 197.25 215.558L198.562 216.046C204.928 237.786 212.541 259.692 231.919 273.197C246.315 282.504 264.747 283.182 279.299 273.719C291.407 265.846 300.251 251.819 305.956 238.818C307.784 234.651 309.048 229.764 311.386 225.889C313.326 222.673 312.081 217.749 313.318 214.125C315.556 207.566 327.058 203.293 318.134 194.219C314.11 190.127 312.747 188.523 312.756 182.908L312.775 176.43C312.838 159.071 313.278 140.526 294.809 131.582C292.049 130.245 289.071 129.283 285.976 129.554ZM102.428 220.267C100.384 224.542 97.991 228.135 95.1142 231.895L105.253 240.83C111.69 227.37 130.037 228.489 137.481 239.375L137.875 239.926C139.707 239 147.445 232.433 148.143 230.632C145.186 227.483 142.102 224.383 140.314 220.39C127.34 227.557 115.088 227.606 102.428 220.267ZM408.533 220.289C395.907 228.188 384.333 226.776 371.695 220.466C369.685 224.531 367.509 227.612 364.463 230.962C366.177 233.687 371.652 237.373 374.125 240.188L374.625 240.755C375.107 240.562 374.904 240.732 375.152 240.159C380.797 229.118 397.306 228.408 405.101 237.453C405.863 238.338 406.365 239.405 407.118 240.29L416.304 231.779L408.533 220.289ZM117.348 246.875C113.839 248.336 118.56 253.884 123.45 250.836C124.498 250.012 125.464 249.206 126.384 248.235C123.729 247.6 120.034 246.297 117.348 246.875ZM386.937 247.058C386.34 247.442 385.888 247.591 385.58 248.25C387.038 251.705 389.776 254.2 393.153 251.624C394.162 250.674 395.19 249.749 396.048 248.656C393.062 247.565 390.15 246.674 386.937 247.058ZM222.841 286.316C221.324 293.994 218.171 298.409 213.495 304.367L234.267 323.261C238.438 297.822 269.851 295.578 276.27 318.75L276.391 319.172C276.783 320.616 276.796 322.083 276.84 323.57C280.57 320.143 295.259 307.845 297.161 303.887C293.245 298.827 289.422 293.054 288.421 286.614C266.474 300.291 244.376 298.476 222.841 286.316ZM200.565 312.717C192.514 317.499 183.733 320.976 174.975 324.227C152.57 332.546 142.828 335.637 133.478 359.5C130.099 368.123 118.991 405.824 121.38 414.551C125.274 418.248 130.786 419.166 135.89 420.154L193.013 426.448L209.816 426.688C212.174 426.751 214.489 427.205 216.869 427.256L297.875 427.258C299.765 427.198 301.619 426.829 303.505 426.744L343.318 424.342C355.184 423.266 367.243 421.967 378.875 419.352C384.372 418.116 390.756 417.533 390.737 411.212C390.706 401.365 387.934 391.254 385.594 381.735C382.674 371.215 379.738 360.544 374.498 350.9C365.2 333.783 352.724 330.4 335.202 323.725C326.778 320.515 318.601 317.1 310.689 312.746L290.84 330.875C285.103 335.752 279.064 340.67 272.547 344.461L280.292 391.205C282.07 399.821 282.081 403.749 276.856 411.323C273.125 416.732 267.995 421.916 261.25 423.068C246.526 425.584 239.085 419.823 232.741 406.75C229.041 399.126 230.697 395.403 232.41 387.772L240.101 344.252C236.522 343.347 233.201 340.781 230.296 338.591L217.576 328.153C211.786 323.172 205.867 318.223 200.565 312.717ZM254.063 319.079C245.92 321.622 244.413 332.919 257.005 333.033C266.131 331.031 263.182 318.072 254.063 319.079ZM253.402 348.66L246.142 396.832C245.396 402.232 252.571 409.922 258.087 408.234C268.039 403.336 265.425 395.362 263.759 386.721L258.884 355.025C258.188 349.908 259.268 348.609 253.402 348.66Z"/>
</svg>
